<?xml version="1.0" standalone="no"?>
<!DOCTYPE svg PUBLIC "-//W3C//DTD SVG 20010904//EN"
 "http://www.w3.org/TR/2001/REC-SVG-20010904/DTD/svg10.dtd">
<svg version="1.0" xmlns="http://www.w3.org/2000/svg"
 width="724.000000pt" height="724.000000pt" viewBox="0 0 724.000000 724.000000"
 preserveAspectRatio="xMidYMid meet">
<metadata>
Created by potrace 1.11, written by Peter Selinger 2001-2013
</metadata>
<g transform="translate(0.000000,724.000000) scale(0.100000,-0.100000)"
fill="#000000" stroke="none">
<path d="M2335 6419 c-254 -95 -540 -265 -738 -438 -342 -299 -577 -683 -678
-1107 -25 -105 -25 -106 -33 -164 -3 -25 -8 -56 -11 -70 -20 -100 -27 -487
-11 -630 17 -145 36 -118 -184 -252 -107 -64 -199 -120 -205 -122 -10 -5 11
-27 159 -160 49 -45 114 -104 144 -132 l55 -50 -159 -59 c-87 -32 -170 -62
-183 -67 -20 -7 -21 -11 -10 -26 17 -22 112 -135 119 -142 3 -3 28 -32 55 -65
28 -33 59 -69 70 -81 11 -12 29 -32 40 -45 11 -13 33 -40 48 -58 l28 -34 -58
-24 c-94 -38 -257 -93 -286 -95 -17 -2 -27 -8 -27 -18 0 -38 63 -145 118 -199
l57 -58 235 -77 c357 -118 643 -219 717 -252 17 -8 34 -14 38 -14 3 0 46 -17
93 -37 76 -32 204 -106 377 -218 28 -18 102 -65 165 -105 332 -211 881 -585
915 -624 6 -6 35 -31 65 -56 110 -90 190 -194 233 -302 15 -37 27 -70 27 -75
0 -21 72 -92 99 -98 69 -15 131 43 171 159 27 79 94 178 174 258 121 121 491
384 981 698 72 45 153 97 180 115 28 17 88 56 135 85 47 29 101 63 120 75 19
12 48 29 63 39 76 47 485 197 923 341 273 89 300 103 365 192 43 58 84 152 72
164 -4 4 -24 10 -43 13 -44 6 -241 74 -254 87 -6 5 -17 9 -25 9 -9 0 -22 4
-30 9 -11 7 4 31 70 108 46 54 94 109 105 123 162 189 182 215 171 222 -7 4
-90 35 -185 70 -130 47 -169 65 -159 73 14 10 141 124 247 222 32 29 69 62 84
74 14 11 24 24 21 28 -2 4 -94 62 -205 127 l-200 119 5 40 c25 194 25 553 0
715 -46 296 -102 476 -227 725 -39 78 -168 280 -205 320 -10 11 -39 45 -65 76
-186 221 -471 438 -758 576 -110 54 -278 123 -296 123 -3 0 -4 -55 0 -122 11
-210 17 -348 21 -478 5 -158 5 -795 0 -875 -18 -277 -19 -289 -42 -435 -17
-116 -68 -255 -97 -266 -8 -3 -36 10 -63 29 -67 48 -232 142 -322 184 -176 81
-327 131 -507 168 -142 29 -351 20 -499 -21 -5 -2 -17 -5 -25 -7 -198 -48
-468 -169 -661 -295 l-106 -69 -21 31 c-43 62 -79 207 -97 392 -4 32 -8 74
-10 92 -28 234 -23 1020 11 1580 3 50 2 92 -3 91 -4 0 -44 -14 -88 -30z"/>
</g>
</svg>
